<svg width="442" height="99" viewBox="0 0 442 99" fill="none" xmlns="http://www.w3.org/2000/svg">
<g clip-path="url(#clip0_10_2)">
<mask id="mask0_10_2" style="mask-type:alpha" maskUnits="userSpaceOnUse" x="12" y="7" width="425" height="85">
<path d="M80.672 7.74399C81.872 7.74399 82.88 7.792 83.696 7.888V8.608C80.72 8.752 78.152 9.472 75.992 10.768C73.544 12.256 71.792 13.648 70.736 14.944C69.728 16.192 68.912 17.224 68.288 18.04C67.712 18.808 67.136 19.744 66.56 20.848C65.648 22.528 64.808 24.184 64.04 25.816L44.744 68.008C42.536 72.76 41.36 75.904 41.216 77.44H40.568L18.752 30.424C18.032 29.08 17.12 28.072 16.016 27.4C14.912 26.68 13.784 26.32 12.632 26.32H12.056V25.6H34.952V26.32H34.376C33.32 26.32 32.528 26.656 32 27.328C31.52 27.952 31.28 28.552 31.28 29.128C31.28 29.704 31.376 30.28 31.568 30.856L43.808 60.592L58.712 25.816C60.968 20.488 63.608 16.48 66.632 13.792C71.096 9.76 75.776 7.74399 80.672 7.74399ZM85.118 25.6V76H74.318V25.6H85.118ZM74.534 70.744V76H68.774V75.28C68.774 75.28 68.918 75.28 69.206 75.28C69.542 75.28 69.71 75.28 69.71 75.28C70.958 75.28 72.014 74.848 72.878 73.984C73.79 73.072 74.27 71.992 74.318 70.744H74.534ZM74.534 30.856H74.318C74.27 29.608 73.79 28.552 72.878 27.688C72.014 26.776 70.958 26.32 69.71 26.32C69.71 26.32 69.542 26.32 69.206 26.32C68.918 26.32 68.774 26.32 68.774 26.32V25.6H74.534V30.856ZM84.902 70.744H85.118C85.166 71.992 85.622 73.072 86.486 73.984C87.398 74.848 88.478 75.28 89.726 75.28C89.726 75.28 89.87 75.28 90.158 75.28C90.446 75.28 90.614 75.28 90.662 75.28V76H84.902V70.744ZM84.902 30.856V25.6H90.662V26.32C90.614 26.32 90.446 26.32 90.158 26.32C89.87 26.32 89.726 26.32 89.726 26.32C88.478 26.32 87.398 26.776 86.486 27.688C85.622 28.552 85.166 29.608 85.118 30.856H84.902ZM120.09 77.44L96.2578 26.032H109.146L124.554 63.544L120.09 77.44ZM120.09 77.44L119.874 68.656L138.162 25.816H143.346L124.266 68.008C124.17 68.296 123.93 68.848 123.546 69.664C123.21 70.432 122.826 71.32 122.394 72.328C121.962 73.336 121.578 74.32 121.242 75.28C120.954 76.192 120.786 76.912 120.738 77.44H120.09ZM136.002 30.856C136.626 29.416 136.554 28.312 135.786 27.544C135.018 26.728 134.178 26.32 133.266 26.32H132.618V25.6H148.026V26.32C148.026 26.32 147.906 26.32 147.666 26.32C147.474 26.32 147.378 26.32 147.378 26.32C146.322 26.32 145.194 26.68 143.994 27.4C142.842 28.072 141.882 29.224 141.114 30.856H136.002ZM111.162 30.856H98.4898C97.7218 29.224 96.7378 28.072 95.5378 27.4C94.3858 26.68 93.2577 26.32 92.1537 26.32C92.1537 26.32 92.0577 26.32 91.8657 26.32C91.6737 26.32 91.5777 26.32 91.5777 26.32V25.6H114.474V26.32H113.826C112.914 26.32 112.098 26.728 111.378 27.544C110.706 28.312 110.634 29.416 111.162 30.856ZM163.238 24.16L186.782 75.568H173.822L158.846 38.056L163.238 24.16ZM147.758 70.744C147.374 71.704 147.302 72.52 147.542 73.192C147.782 73.864 148.19 74.392 148.766 74.776C149.342 75.112 149.918 75.28 150.494 75.28H151.142V76H135.734V75.28C135.734 75.28 135.854 75.28 136.094 75.28C136.286 75.28 136.382 75.28 136.382 75.28C137.486 75.28 138.614 74.944 139.766 74.272C140.966 73.552 141.95 72.376 142.718 70.744H147.758ZM163.238 24.16L163.526 32.944L145.67 75.784H140.414L159.062 33.592C159.206 33.304 159.446 32.776 159.782 32.008C160.166 31.192 160.55 30.28 160.934 29.272C161.366 28.264 161.75 27.304 162.086 26.392C162.422 25.432 162.59 24.688 162.59 24.16H163.238ZM170.798 58.864V61.888H149.63V58.864H170.798ZM171.878 70.744H184.478C185.294 72.376 186.278 73.552 187.43 74.272C188.582 74.944 189.71 75.28 190.814 75.28C190.814 75.28 190.91 75.28 191.102 75.28C191.294 75.28 191.39 75.28 191.39 75.28V76H168.494V75.28H169.142C170.102 75.28 170.942 74.896 171.662 74.128C172.382 73.312 172.454 72.184 171.878 70.744ZM215.135 24.52L261.071 68.296L261.935 77.008L215.999 33.304L215.135 24.52ZM215.495 70.888V76H209.519V75.28C209.519 75.28 209.735 75.28 210.167 75.28C210.599 75.28 210.839 75.28 210.887 75.28C212.087 75.28 213.119 74.848 213.983 73.984C214.847 73.12 215.279 72.088 215.279 70.888H215.495ZM225.575 70.888C225.575 72.088 226.007 73.12 226.871 73.984C227.735 74.848 228.767 75.28 229.967 75.28C230.015 75.28 230.255 75.28 230.687 75.28C231.119 75.28 231.335 75.28 231.335 75.28V76H225.359V70.888H225.575ZM215.135 24.52L225.503 35.536L225.575 76H215.279V33.52C215.279 30.832 215.135 28.672 214.847 27.04C214.559 25.36 214.415 24.52 214.415 24.52H215.135ZM261.719 25.6V67.792C261.719 69.568 261.791 71.176 261.935 72.616C262.079 74.008 262.223 75.088 262.367 75.856C262.511 76.624 262.583 77.008 262.583 77.008H261.935L251.495 65.344V25.6H261.719ZM267.479 25.6V26.32C267.479 26.32 267.263 26.32 266.831 26.32C266.399 26.32 266.183 26.32 266.183 26.32C264.983 26.32 263.951 26.752 263.087 27.616C262.223 28.432 261.767 29.464 261.719 30.712H261.503V25.6H267.479ZM245.663 25.6H251.639V30.712H251.495C251.447 29.464 250.991 28.432 250.127 27.616C249.311 26.752 248.279 26.32 247.031 26.32C247.031 26.32 246.815 26.32 246.383 26.32C245.951 26.32 245.711 26.32 245.663 26.32V25.6ZM300.285 24.592C306.045 24.592 311.037 25.672 315.261 27.832C319.533 29.944 322.821 32.944 325.125 36.832C327.477 40.72 328.653 45.376 328.653 50.8C328.653 56.176 327.477 60.832 325.125 64.768C322.821 68.656 319.533 71.68 315.261 73.84C311.037 75.952 306.045 77.008 300.285 77.008C294.525 77.008 289.509 75.952 285.237 73.84C281.013 71.68 277.749 68.656 275.445 64.768C273.141 60.88 271.989 56.224 271.989 50.8C271.989 45.424 273.141 40.792 275.445 36.904C277.749 32.968 281.013 29.944 285.237 27.832C289.509 25.672 294.525 24.592 300.285 24.592ZM300.285 73.984C303.693 73.984 306.621 73.048 309.069 71.176C311.517 69.256 313.413 66.568 314.757 63.112C316.101 59.656 316.773 55.552 316.773 50.8C316.773 46.048 316.101 41.944 314.757 38.488C313.413 35.032 311.517 32.368 309.069 30.496C306.621 28.576 303.693 27.616 300.285 27.616C296.925 27.616 293.997 28.576 291.501 30.496C289.053 32.368 287.157 35.032 285.813 38.488C284.469 41.944 283.797 46.048 283.797 50.8C283.797 55.552 284.469 59.656 285.813 63.112C287.157 66.568 289.053 69.256 291.501 71.176C293.997 73.048 296.925 73.984 300.285 73.984ZM349.704 25.6V76H338.904V25.6H349.704ZM339.12 70.744V76H333.36V75.28C333.36 75.28 333.504 75.28 333.792 75.28C334.128 75.28 334.296 75.28 334.296 75.28C335.544 75.28 336.6 74.848 337.464 73.984C338.376 73.072 338.856 71.992 338.904 70.744H339.12ZM339.12 30.856H338.904C338.856 29.608 338.376 28.552 337.464 27.688C336.6 26.776 335.544 26.32 334.296 26.32C334.296 26.32 334.128 26.32 333.792 26.32C333.504 26.32 333.36 26.32 333.36 26.32V25.6H339.12V30.856ZM349.488 70.744H349.704C349.752 71.992 350.208 73.072 351.072 73.984C351.984 74.848 353.064 75.28 354.312 75.28C354.312 75.28 354.456 75.28 354.744 75.28C355.032 75.28 355.2 75.28 355.248 75.28V76H349.488V70.744ZM349.488 30.856V25.6H355.248V26.32C355.2 26.32 355.032 26.32 354.744 26.32C354.456 26.32 354.312 26.32 354.312 26.32C353.064 26.32 351.984 26.776 351.072 27.688C350.208 28.552 349.752 29.608 349.704 30.856H349.488ZM436.3 88.24C432.556 90.112 428.572 91.048 424.348 91.048C420.604 91.048 417.196 90.472 414.124 89.32C407.5 86.872 401.86 82.096 397.204 74.992C396.004 73.264 393.772 69.952 390.508 65.056C387.244 60.16 385.132 57.04 384.172 55.696C382.492 53.056 381.148 51.616 380.14 51.376V50.656C380.188 50.656 380.236 50.656 380.284 50.656C380.38 50.656 380.476 50.656 380.572 50.656C380.668 50.656 380.764 50.656 380.86 50.656C380.956 50.656 381.076 50.656 381.22 50.656C381.364 50.656 381.484 50.656 381.58 50.656C384.028 50.656 386.284 50.104 388.348 49C391.468 47.272 393.028 44.08 393.028 39.424C393.028 36.016 392.068 33.4 390.148 31.576C388.228 29.704 385.924 28.768 383.236 28.768H377.764V70.744C377.764 71.992 378.22 73.072 379.132 73.984C380.044 74.848 381.124 75.28 382.372 75.28H383.308V76H361.42V75.28H362.356C363.556 75.28 364.612 74.848 365.524 73.984C366.436 73.12 366.916 72.064 366.964 70.816V30.856C366.916 29.608 366.436 28.552 365.524 27.688C364.66 26.776 363.604 26.32 362.356 26.32H361.42V25.6H386.116C392.308 25.6 397.108 27.016 400.516 29.848C403.204 32.056 404.548 35.176 404.548 39.208C404.548 43.24 403.228 46.528 400.588 49.072C397.996 51.568 395.02 52.816 391.66 52.816C391.372 52.816 391.06 52.792 390.724 52.744C392.692 53.8 394.324 54.976 395.62 56.272C396.964 57.568 398.116 58.792 399.076 59.944C400.084 61.096 400.924 62.128 401.596 63.04C402.316 63.904 403.252 65.08 404.404 66.568C405.556 68.008 406.756 69.52 408.004 71.104C409.252 72.688 410.62 74.32 412.108 76C413.644 77.632 415.324 79.192 417.148 80.68C419.02 82.168 420.916 83.392 422.836 84.352C426.916 86.416 431.404 87.472 436.3 87.52V88.24Z" fill="url(#paint0_linear_10_2)"/>
</mask>
<g mask="url(#mask0_10_2)">
<line x1="-17" y1="30" x2="454" y2="30" stroke="black" stroke-width="50"/>
<line x1="-17" y1="49" x2="454" y2="49" stroke="black" stroke-width="10"/>
<line x1="-17" y1="61.5" x2="454" y2="61.5" stroke="black" stroke-width="9"/>
<line x1="-17" y1="72.5" x2="454" y2="72.5" stroke="black" stroke-width="7"/>
<line x1="-17" y1="87" x2="454" y2="87" stroke="black" stroke-width="10"/>
<line x1="-17" y1="83.5" x2="454" y2="83.5" stroke="black" stroke-width="5"/>
</g>
</g>
<defs>
<linearGradient id="paint0_linear_10_2" x1="212" y1="-6" x2="212" y2="167.5" gradientUnits="userSpaceOnUse">
<stop/>
<stop offset="1" stop-color="white" stop-opacity="0.5"/>
</linearGradient>
<clipPath id="clip0_10_2">
<rect width="442" height="99" fill="white"/>
</clipPath>
</defs>
</svg>
